<?xml version="1.0" standalone="yes"?>
<svg xmlns="http://www.w3.org/2000/svg" width="2072" height="376">
<path style="fill:#ffffff; stroke:none;" d="M0 0L0 376L2072 376L2072 0L0 0z"/>
<path style="fill:#3b3b3b; stroke:none;" d="M1163 174C1158.24 176.251 1137.79 181.703 1136.92 187.12C1136.44 190.13 1140.95 191.528 1143 192.421C1150.78 195.814 1158.73 200.035 1167 202L1167 203L1143 212.281L1135.92 217.883L1153 227C1147.68 228.735 1127.23 233.47 1125.75 239.225C1124.08 245.752 1141.77 258.769 1146 263L1212 329L1240 357C1242.77 359.769 1247.52 366.607 1252 366.079C1260.46 365.08 1273.09 346.909 1279 341L1350 270L1370 250C1372.06 247.924 1376.55 244.591 1376.08 241.213C1375.26 235.364 1356.04 229.44 1351 228L1351 227C1354.6 226.147 1370.88 222.018 1370.08 217.117C1369.63 214.371 1365.13 213.203 1363 212.281C1355.49 209.02 1347.91 205.163 1340 203L1340 201C1344.95 199.585 1366.2 193.384 1367.08 187.894C1367.51 185.21 1363.84 184.001 1362 183.144C1355.52 180.134 1348.9 176.887 1342 175L1342 173C1346.99 171.818 1367.13 166.367 1368.09 160.775C1368.62 157.687 1365.04 154.237 1363.37 152C1358.18 145.021 1353.09 137.962 1347.87 131C1327.46 103.787 1307.3 76.3817 1287.12 49C1279.24 38.3095 1271.29 27.6601 1263.37 17C1261.1 13.9468 1257.41 6.6358 1253 6.6358C1248.57 6.6358 1244.91 13.9509 1242.63 17C1233.85 28.7081 1224.91 40.292 1216.13 52C1195.82 79.081 1175.18 105.919 1154.87 133C1150.1 139.367 1145.29 145.702 1140.43 152C1138.71 154.215 1135.27 157.669 1135.88 160.775C1137.01 166.505 1157.85 172.003 1163 174z"/>
<path style="fill:#ffffff; stroke:none;" d="M1141 160L1222 193.8L1253 206.255L1271 199.011L1312 181.719L1348 166.424L1360.12 158.895L1355.71 150L1340.37 129L1278.63 45L1261 21L1253.05 13.9213L1244.37 23L1224.63 49L1169.12 122L1141 160z"/>
<path style="fill:#3b3b3b; stroke:none;" d="M1255 22L1255 83C1255 90.0776 1252.64 102.25 1255.6 108.725C1258.23 114.477 1273.39 118.113 1279 120.397C1300.78 129.271 1324.88 144.892 1348 149C1341.01 133.312 1326.49 118.946 1316.42 105C1296.83 77.8676 1278.23 46.0555 1255 22M1249 25L1183.63 111L1155 150C1177.97 145.919 1202.52 130.203 1224 121.001C1230.4 118.259 1244.88 115.081 1248.97 109.351C1252.06 105.028 1250 94.1464 1250 89L1250 45C1250 38.8461 1251.39 30.7072 1249 25z"/>
<path style="fill:#e58b47; stroke:none;" d="M12 109L12 281L158 281L158 241L66 241L66 208L149 208L149 173L66 173L66 146L155 146L155 109L12 109z"/>
<path style="fill:#3b3b3b; stroke:none;" d="M192 157L174 157L174 192L192 192C192 215.194 184.383 254.975 200.681 273.826C212.171 287.117 236.239 285.329 252 283.282C255.852 282.781 266.599 283.016 268.307 278.686C270.532 273.044 267.036 261.007 266.285 255C265.998 252.71 266.409 248.729 263.682 247.777C256.188 245.16 247.609 254.434 242.318 243.981C239.873 239.151 241 232.246 241 227L241 192L267 192L267 157L241 157L241 109L204 126.781L192.603 134.39L192 157M289 109L289 281L338 281C338 258.002 334.4 231.545 339.004 209C341.132 198.578 350.236 187.917 361.996 192.617C371.871 196.564 372 206.974 372 216L372 281L422 281L422 220C422 206.408 422.914 192.034 418.301 179C405.807 143.697 360.779 150.163 338 170L338 109L289 109M1037 109L1037 281L1087 281L1087 109L1037 109z"/>
<path style="fill:#e58b47; stroke:none;" d="M1427 109L1427 151L1481 151L1481 281L1535 281L1535 151L1589 151L1589 109L1427 109M1929 109L1929 281L1978 281C1978 257.405 1974.22 230.088 1979.29 207C1981.71 195.977 1993.82 187.177 2004.7 193.684C2013.19 198.762 2012 209.549 2012 218L2012 281L2062 281L2062 219C2062 204.982 2062.75 190.322 2057.54 177C2044.43 143.497 1998.92 150.514 1978 171L1978 109L1929 109z"/>
<path style="fill:#3b3b3b; stroke:none;" d="M1249 115L1193 139.421L1151 157C1155.24 164.005 1170.54 167.192 1178 170.201C1202.09 179.913 1225.97 190.143 1250 200L1250 141L1249 115M1255 115L1255 200L1353 159L1353 157L1255 115M585 249C573.354 245.558 552.056 243.297 540 245.148C533.656 246.122 529.336 252.579 523 254.402C506.79 259.067 494.264 246.481 493 231L588 231C588 206.733 585.239 181.832 564 166.289C524.015 137.03 450.207 154.769 443.289 208C440.187 231.877 447.615 258.552 468 272.957C499.647 295.32 569.778 289.16 585 249M656 174L655 174L655 157L609 157L609 281L659 281C659 259.066 656.629 235.604 660.805 214C662.587 204.779 666.825 194.311 677 191.968C682.747 190.644 688.496 193.727 694 195L709 160C689.173 152.31 665.03 149.38 656 174M762 174L762 157L716 157L716 281L765 281C765 258.002 761.4 231.545 766.004 209C768.132 198.578 777.236 187.917 788.996 192.617C798.871 196.564 799 206.974 799 216L799 281L849 281L849 219C849 205.822 849.961 191.623 845.453 179C836.314 153.408 803.646 147.76 781 158.493C773.448 162.073 767.816 168.184 762 174M964 268L968.394 279.972L982 281L1014 281C1007.43 256.936 1009 232.949 1009 208C1009 193.079 1006.63 174.633 993.961 164.761C972.327 147.905 923.388 149.594 899 159.453C888.694 163.619 872.49 176.719 874.502 189.852C875.272 194.877 891.826 194.537 896 194.925C902.574 195.536 912.395 198.561 918.776 196.681C922.586 195.559 924.143 189.895 927.094 187.394C934.94 180.744 957.058 178.602 959.586 192C961.228 200.7 946.994 202.368 941 203.873C921.873 208.679 891.255 208.898 877.681 225.093C861.553 244.334 871.344 274.472 895 281.56C920.11 289.084 943.138 281.786 964 268z"/>
<path style="fill:#f1dac6; stroke:none;" d="M1660 154L1661 155L1660 154z"/>
<path style="fill:#e58b47; stroke:none;" d="M1745 249C1732.57 246.041 1712.64 243.203 1700 245.148C1693.86 246.093 1690.04 252.399 1684 254.215C1667.69 259.118 1653.75 247.444 1653 231L1748 231C1748 206.693 1745.08 182.444 1724 166.761C1685.39 138.045 1612 153.842 1604.3 206C1600.62 230.888 1607.29 258.028 1629 273.226C1660.51 295.283 1729.93 288.741 1745 249z"/>
<path style="fill:#f1dac6; stroke:none;" d="M1820 154L1821 155L1820 154z"/>
<path style="fill:#e58b47; stroke:none;" d="M1908 237C1897.39 234.467 1885.85 233.951 1875 233C1871.48 232.692 1866.65 231.081 1863.27 232.604C1859.93 234.113 1858.8 239.258 1856.61 241.985C1851.84 247.925 1844.68 251.684 1837 251.66C1807.91 251.566 1803.92 205.016 1824 190.8C1830.08 186.5 1837.89 185.494 1845 187.351C1853.67 189.616 1855.57 200.935 1862.14 202.667C1871.09 205.026 1885.8 199.95 1895 198.845C1897.52 198.542 1903.24 198.673 1904.21 195.682C1906.79 187.745 1894.08 173.76 1889 169.174C1859.61 142.667 1797.84 148.744 1774.51 180C1764.79 193.036 1764 208.434 1764 224C1764 235.986 1766.23 246.877 1773.09 257C1802.02 299.629 1899.26 295.341 1908 237z"/>
<path style="fill:#f1dac6; stroke:none;" d="M2008 154L2009 155L2008 154M1654 155L1655 156L1654 155M2003 155L2004 156L2003 155z"/>
<path style="fill:#fac97f; stroke:none;" d="M1650 156L1651 157L1650 156z"/>
<path style="fill:#f1dac6; stroke:none;" d="M1809 156L1810 157L1809 156M2000 156L2001 157L2000 156M1646 157L1647 158L1646 157z"/>
<path style="fill:#fac97f; stroke:none;" d="M1806 157L1807 158L1806 157z"/>
<path style="fill:#f1dac6; stroke:none;" d="M1997 157L1998 158L1997 157M1643 158L1644 159L1643 158z"/>
<path style="fill:#fac97f; stroke:none;" d="M1803 158L1804 159L1803 158M1995 158L1996 159L1995 158z"/>
<path style="fill:#f1dac6; stroke:none;" d="M1800 159L1801 160L1800 159z"/>
<path style="fill:#fac97f; stroke:none;" d="M1993 159L1994 160L1993 159z"/>
<path style="fill:#f1dac6; stroke:none;" d="M1638 160L1639 161L1638 160z"/>
<path style="fill:#fac97f; stroke:none;" d="M1798 160L1799 161L1798 160z"/>
<path style="fill:#f1dac6; stroke:none;" d="M1991 160L1992 161L1991 160M1636 161L1637 162L1636 161M1715 161L1716 162L1715 161z"/>
<path style="fill:#fac97f; stroke:none;" d="M1796 161L1797 162L1796 161z"/>
<path style="fill:#f1dac6; stroke:none;" d="M1634 162L1635 163L1634 162z"/>
<path style="fill:#fac97f; stroke:none;" d="M1794 162L1795 163L1794 162z"/>
<path style="fill:#f1dac6; stroke:none;" d="M1792 163L1793 164L1792 163z"/>
<path style="fill:#fac97f; stroke:none;" d="M1631 164L1632 165L1631 164z"/>
<path style="fill:#f1dac6; stroke:none;" d="M1720 164L1721 165L1720 164M1985 164L1986 165L1985 164M1789 165L1790 166L1789 165z"/>
<path style="fill:#fac97f; stroke:none;" d="M1628 166L1629 167L1628 166z"/>
<path style="fill:#f1dac6; stroke:none;" d="M1723 166L1724 167L1723 166M1785 168L1786 169L1785 168z"/>
<path style="fill:#fac97f; stroke:none;" d="M1624 169L1625 170L1624 169M1784 169L1785 170L1784 169M1623 170L1624 171L1623 170M1783 170L1784 171L1783 170z"/>
<path style="fill:#f1dac6; stroke:none;" d="M1978 170L1979 171L1978 170z"/>
<path style="fill:#fac97f; stroke:none;" d="M1622 171L1623 172L1622 171M1621 172L1622 173L1621 172M1620 173L1621 174L1620 173M1619 174L1620 175L1619 174M1618 175L1619 176L1618 175M1778 175L1779 176L1778 175M1617 176L1618 177L1617 176M1777 176L1778 177L1777 176z"/>
<path style="fill:#ffffff; stroke:none;" d="M1145 187L1145 188C1170.62 197.938 1195.79 209.49 1221 220.424C1229.7 224.199 1243.41 233.659 1253 233.142C1262.79 232.615 1275.01 224.267 1284 220.421C1308.99 209.728 1333.65 197.835 1359 188C1353.71 183.723 1340.93 177.331 1334 177.539C1327.44 177.735 1319.95 182.617 1314 185.15C1300.77 190.783 1287.19 195.691 1274 201.337C1267.57 204.09 1260.14 209.757 1253 210.142C1246.43 210.496 1237.96 204.925 1232 202.424C1218.68 196.833 1205.27 191.44 1192 185.719C1185.68 182.995 1177.87 178.208 1171 177.483C1162.88 176.627 1152.6 184.413 1145 187z"/>
<path style="fill:#fac97f; stroke:none;" d="M1776 177L1777 178L1776 177M1614 180L1615 181L1614 180M1773 181L1774 182L1773 181z"/>
<path style="fill:#ffffff; stroke:none;" d="M493 207L538 207C536.61 175.108 494.382 175.312 493 207z"/>
<path style="fill:#f1dac6; stroke:none;" d="M1672 182L1673 183L1672 182z"/>
<path style="fill:#ffffff; stroke:none;" d="M1653 207L1699 207C1697.19 199.643 1696.35 191.784 1689.91 186.789C1673.39 173.994 1653.38 188.477 1653 207z"/>
<path style="fill:#f1dac6; stroke:none;" d="M1678 182L1679 183L1678 182z"/>
<path style="fill:#fac97f; stroke:none;" d="M1612 183L1613 184L1612 183z"/>
<path style="fill:#f1dac6; stroke:none;" d="M1686 184L1687 185L1686 184z"/>
<path style="fill:#fac97f; stroke:none;" d="M1611 185L1612 186L1611 185z"/>
<path style="fill:#f1dac6; stroke:none;" d="M1689 186L1690 187L1689 186z"/>
<path style="fill:#fac97f; stroke:none;" d="M1770 186L1771 187L1770 186z"/>
<path style="fill:#f1dac6; stroke:none;" d="M1846 187L1847 188L1846 187z"/>
<path style="fill:#fac97f; stroke:none;" d="M1769 188L1770 189L1769 188M1768 190L1769 191L1768 190M1852 190L1853 191L1852 190M1608 191L1609 192L1608 191z"/>
<path style="fill:#f1dac6; stroke:none;" d="M1853 191L1854 192L1853 191M1854 192L1855 193L1854 192z"/>
<path style="fill:#fac97f; stroke:none;" d="M1607 193L1608 194L1607 193M1767 193L1768 194L1767 193M1855 193L1856 194L1855 193z"/>
<path style="fill:#f1dac6; stroke:none;" d="M2005 193L2006 194L2005 193z"/>
<path style="fill:#fac97f; stroke:none;" d="M1606 196L1607 197L1606 196M1696 196L1697 197L1696 196M1766 196L1767 197L1766 196M1857 196L1858 197L1857 196M1858 198L1859 199L1858 198M1605.33 199.667L1605.67 200.333L1605.33 199.667M1697 199L1698 200L1697 199M1765.33 199.667L1765.67 200.333L1765.33 199.667M1604 204L1605 205L1604 204M1698.33 204.667L1698.67 205.333L1698.33 204.667M1764.33 204.667L1764.67 205.333L1764.33 204.667z"/>
<path style="fill:#ffffff; stroke:none;" d="M1144 217L1144 218C1169.77 226.717 1194.74 238.694 1220 248.8C1229.42 252.569 1241.84 260.615 1252 261.143C1261.72 261.647 1275.09 252.795 1284 249.201C1309.86 238.773 1335.61 226.982 1362 218C1355.64 213.189 1340.08 205.366 1332 205.423C1325.65 205.468 1317.69 210.635 1312 213.231C1299.78 218.801 1287.33 223.959 1275 229.281C1268.66 232.016 1259.93 237.888 1253 238.092C1246.63 238.279 1238.75 233.034 1233 230.579C1220.36 225.185 1207.53 220.102 1195 214.457C1188.7 211.617 1180.93 206.55 1174 205.823C1165.1 204.889 1152.43 214.131 1144 217z"/>
<path style="fill:#fac97f; stroke:none;" d="M1603 210L1603 214L1604 214L1603 210M1763 212L1763 227L1764 227L1763 212z"/>
<path style="fill:#ffffff; stroke:none;" d="M960 223C953.258 224.56 946.664 226.963 940 228.86C935.665 230.094 930.97 231.224 927.001 233.417C919.234 237.706 915.588 249.203 924.108 254.995C934.743 262.224 952.75 254.899 957.811 243.999C960.843 237.469 960 230 960 223M1132 241L1172 282L1251 361L1252 361L1333 280C1344.06 268.944 1362.38 256.195 1369 242C1359.55 236.487 1349.01 229.12 1338 232L1338 233L1358 242C1334.47 251.13 1311.19 261.304 1288 271.281C1277.35 275.862 1263.57 284.643 1252 285.744C1242.24 286.672 1227.75 277.212 1219 273.231C1194.83 262.235 1167.36 255.611 1145 241L1164 233L1164 231C1154.82 227.868 1140.11 236.284 1132 241z"/>
<path style="fill:#e58b47; stroke:none;" d="M1145 241C1151.21 246.763 1161.25 249.941 1169 253.281C1186.87 260.986 1205.11 267.765 1223 275.421C1231.39 279.01 1242.66 286.519 1252 285.88C1263.85 285.068 1278.13 275.957 1289 271.281C1311.75 261.494 1336.15 253.647 1358 242C1343.73 230.177 1332.3 234.88 1317 241C1302.31 246.876 1287.69 252.924 1273 258.8C1266.99 261.202 1259.51 265.805 1253 266.143C1244.83 266.567 1233.42 259.47 1226 256.281C1211.8 250.178 1197.35 244.539 1183 238.8C1177.85 236.74 1170.65 232.193 1165 232.6C1158.97 233.034 1150.36 238.174 1145 241z"/>
<path style="fill:#fac97f; stroke:none;" d="M1604.33 233.667L1604.67 234.333L1604.33 233.667M1860 235L1861 236L1860 235M1605 238L1606 239L1605 238M1606 241L1607 242L1606 241M1857 241L1858 242L1857 241M1766 243L1767 244L1766 243M1607 244L1608 245L1607 244z"/>
<path style="fill:#e58b47; stroke:none;" d="M1145 246C1150.47 257.737 1164.88 267.88 1174 277L1225 328C1232.24 335.238 1239.99 346.193 1249 351L1249 308C1249 303.641 1250.58 295.359 1247.97 291.638C1243.4 285.123 1227.19 281.811 1220 278.719C1195.21 268.052 1170.26 255.193 1145 246M1254 351C1263.62 346.516 1271.55 335.453 1279 328L1330 277C1338.84 268.157 1352.69 258.385 1358 247C1332.89 254.933 1308.47 268.427 1284 278.397C1276.74 281.355 1259.58 285.154 1255.03 291.638C1252.42 295.359 1254 303.641 1254 308L1254 351z"/>
<path style="fill:#fac97f; stroke:none;" d="M1608 247L1609 248L1608 247M1768 248L1769 249L1768 248M1609 249L1610 250L1609 249z"/>
<path style="fill:#f1dac6; stroke:none;" d="M1845 250L1846 251L1845 250z"/>
<path style="fill:#fac97f; stroke:none;" d="M1610 251L1611 252L1610 251M1770 252L1771 253L1770 252M1611 253L1612 254L1611 253M1613 256L1614 257L1613 256M1615 259L1616 260L1615 259z"/>
<path style="fill:#f1dac6; stroke:none;" d="M1778 263L1779 264L1778 263z"/>
<path style="fill:#fac97f; stroke:none;" d="M1619 264L1620 265L1619 264M1779 264L1780 265L1779 264M1620 265L1621 266L1620 265M1780 265L1781 266L1780 265M1621 266L1622 267L1621 266M1781 266L1782 267L1781 266M1622 267L1623 268L1622 267z"/>
<path style="fill:#f1dac6; stroke:none;" d="M1782 267L1783 268L1782 267z"/>
<path style="fill:#fac97f; stroke:none;" d="M1624 269L1625 270L1624 269z"/>
<path style="fill:#f1dac6; stroke:none;" d="M1629 273L1630 274L1629 273M1634 276L1635 277L1634 276M1636 277L1637 278L1636 277M1800 278L1801 279L1800 278M1641 279L1642 280L1641 279M1644 280L1645 281L1644 280M1806 280L1807 281L1806 280M1810 281L1811 282L1810 281M1652 282L1653 283L1652 282M1822.67 283.333L1823.33 283.667L1822.67 283.333z"/>
</svg>
